PathFileType	4	(X/Y/Z)	D:\TRACE\spot_10-12-23\spot_arm_motion_2_5-v60.trc
DataRate	CameraRate	NumFrames	NumMarkers	Units	OrigDataRate	OrigDataStartFrame	OrigNumFrames
100.00	100.00	      18	9	mm	100.00	1	      7000
Frame#	Time	front left toe			Front right toe			aft left toe			aft right toe			Arm			FL body			FR body			AL Body			AR Body			
		X1	Y1	Z1	X2	Y2	Z2	X3	Y3	Z3	X4	Y4	Z4	X5	Y5	Z5	X6	Y6	Z6	X7	Y7	Z7	X8	Y8	Z8	X9	Y9	Z9	

1	0.000	-246.80812	24.07860	0.66842	249.01553	24.80672	15.56226	-246.77814	24.27442	600.47803	225.33725	19.52977	609.20087	18.49541	685.39270	-124.63570	-67.33232	422.73380	-103.02119	85.54578	427.56757	-100.82779	-85.22654	446.32428	780.34662	65.76700	444.85031	785.06635	
2	0.010	-246.88095	24.06120	0.27048	249.11626	24.45090	15.14067	-246.65407	24.03861	600.06396	225.25740	19.37500	608.96283	18.62195	691.79163	-124.35753	-67.26521	428.83740	-102.94650	85.30745	434.30997	-101.07018	-84.99675	452.38104	780.51794	65.87707	450.91681	785.25018	
3	0.020	-246.87752	24.07383	0.01208	249.19983	24.39205	14.87383	-246.72328	23.96892	599.68811	225.33224	19.21390	608.57788	18.62180	698.18420	-124.19557	-67.13116	435.20569	-102.71661	85.48141	440.64185	-100.72228	-84.82487	458.09711	780.86371	66.09000	457.06223	785.10248	
4	0.030	-246.77484	24.00801	-0.29709	249.24872	24.39193	14.86277	-246.02359	23.43711	599.63879	225.38055	19.05341	608.45111	18.60958	704.53339	-123.91058	-67.04611	441.45984	-102.45990	85.88124	446.71249	-100.06969	-84.31775	463.95767	781.11554	66.20802	463.05557	786.01526	
5	0.040	-246.73520	23.85723	-0.59702	249.02753	24.45444	14.39157	-246.80750	23.96662	598.99792	225.39679	18.96153	608.16498	18.75243	710.77344	-123.52557	-66.84452	447.82538	-102.28518	85.71262	453.21872	-100.61945	-84.60054	470.00967	781.19464	66.04711	469.00238	785.61005	
6	0.050	-246.78633	23.61682	-0.90746	248.86031	24.32316	14.02553	-246.56671	23.60382	598.83038	225.40891	18.82302	607.87140	18.86363	716.91559	-123.34126	-66.79436	453.88000	-102.16089	86.03227	459.29755	-100.08348	-84.40387	475.75464	781.10168	66.05318	474.85559	786.16205	
7	0.060	-246.85710	23.52710	-1.26177	249.49203	24.14474	13.92767	-246.78932	23.50778	598.52759	225.54292	18.64110	607.77283	18.84387	722.94507	-123.20277	-66.82171	460.00562	-102.36611	85.89775	465.43738	-100.25256	-84.41798	481.35129	781.41931	66.48652	480.57578	786.04065	
8	0.070	-246.93315	23.41219	-1.60942	249.74847	24.10890	13.63199	-247.08273	23.63298	598.16064	225.59322	18.51157	607.61194	18.81704	728.72791	-123.04258	-66.63024	465.91959	-102.05405	85.97070	471.23264	-100.03894	-84.12120	486.95801	781.39398	66.25917	486.26324	786.18829	
9	0.080	-247.04814	23.40446	-1.90320	249.71338	24.08078	13.28799	-247.13568	23.78012	597.71130	225.68126	18.52283	607.29224	18.78217	734.60077	-122.83491	-66.57220	471.61478	-101.91787	86.39732	476.91855	-99.73965	-84.32774	492.60794	781.72614	66.45608	491.84869	786.25214	
10	0.090	-247.13718	23.42523	-2.17230	249.80531	23.98615	13.06884	-247.16394	23.88472	597.33069	225.68266	18.49103	607.00110	18.80202	740.23920	-122.58785	-66.38807	477.09482	-101.73186	86.36124	482.63770	-99.73916	-84.28763	498.02982	781.68237	65.95817	497.42108	786.42242	
11	0.100	-247.28075	23.47132	-2.49788	249.74275	23.74405	12.65086	-247.09238	23.76952	597.05774	225.73680	18.45288	606.73999	18.79809	745.73206	-122.47965	-66.29194	482.71982	-101.63965	86.61966	488.17819	-99.33785	-84.17282	503.18585	781.90234	67.41120	502.28070	786.90253	
12	0.110	-247.33313	23.28407	-2.71219	249.83069	23.72493	12.37145	-247.03072	23.54392	596.81683	225.83528	18.41772	606.41901	18.84172	750.93091	-122.43945	-66.10569	487.72137	-101.48101	86.49116	493.41614	-99.32313	-83.62901	507.97601	781.62958	65.70743	507.84674	786.52887	
13	0.120	-247.17197	22.97966	-2.93505	249.81761	23.65847	12.07357	-247.04282	23.34356	596.54047	226.01366	18.35576	606.13855	18.93386	755.93164	-122.20008	-66.00613	492.79434	-101.53437	86.50259	498.40683	-99.23427	-84.42753	513.19708	781.72742	65.38871	512.63696	786.64569	
14	0.130	-247.15315	22.88169	-3.15575	249.87393	23.68531	11.87489	-247.07050	23.24949	596.33966	226.14182	18.36417	606.01495	18.96286	760.90717	-122.16443	-66.04362	497.69907	-101.59645	86.59177	503.58276	-99.40881	-84.34805	517.81158	781.96722	65.39115	517.56592	786.58423	
15	0.140	-247.38390	23.02337	-3.56666	249.96144	23.65722	11.66387	-247.09222	23.27133	596.18756	226.19872	18.32301	605.85638	18.97111	765.69153	-122.04694	-66.06359	502.45532	-101.56274	86.78950	508.31476	-99.41228	-84.31824	522.42218	782.09705	66.03816	522.03729	786.88641	
16	0.150	-247.49059	23.03241	-3.94568	250.01982	23.82786	11.53150	-247.17421	23.40714	595.86176	226.17339	18.21049	605.55688	18.94114	770.16730	-122.07558	-66.04446	507.04507	-101.59263	86.95050	512.73682	-99.26149	-84.21706	526.89923	782.19434	66.09213	526.34381	786.80884	
17	0.160	-247.43178	22.87835	-4.14771	250.14140	23.77619	11.27530	-247.25591	23.30914	595.62427	226.07933	18.13750	605.35028	18.87197	774.49927	-122.00345	-65.92643	511.48959	-101.50176	86.89229	517.25403	-99.32249	-84.15752	530.91162	782.11719	66.34288	530.63281	787.00714	
18	0.170	-247.58450	22.24129	-3.98876	250.14188	23.69849	10.92612	-247.34880	23.14529	595.36542	226.02039	18.01363	605.11652	19.03138	778.62177	-121.92474	-65.82387	515.59149	-101.49416	86.98147	521.10297	-98.85404	-84.14526	534.99164	782.07056	66.66690	534.69818	787.14471	
